<mxfile host="Electron" modified="2023-05-27T14:32:31.395Z" agent="Mozilla/5.0 (Macintosh; Intel Mac OS X 10_15_7) AppleWebKit/537.36 (KHTML, like Gecko) draw.io/21.2.1 Chrome/112.0.5615.87 Electron/24.1.2 Safari/537.36" etag="yka12N6l0FwoiH9GWd7n" version="21.2.1" type="device">
  <diagram name="Page-1" id="H1nZVYqxkzLZFgEqRADx">
    <mxGraphModel dx="1494" dy="2378" grid="1" gridSize="10" guides="1" tooltips="1" connect="1" arrows="1" fold="1" page="1" pageScale="1" pageWidth="850" pageHeight="1100" math="0" shadow="0">
      <root>
        <mxCell id="0" />
        <mxCell id="1" parent="0" />
        <mxCell id="AsBp8XiL8Dx4Y6rQVwFH-10169" value="R, W: 107, H: 101, ORDER: 19, GC: {43, 22, 23, 19, 4, 15, 21, 1, 17, 11, 8, 3, 12, 2, 18, 10, 58, 9, 49} " style="text;html=1;strokeColor=none;fillColor=none;align=center;verticalAlign=middle;whiteSpace=wrap;rounded=0;flipV=1;" parent="1" vertex="1">
          <mxGeometry x="1170" width="1070" height="30" as="geometry" />
        </mxCell>
        <mxCell id="AsBp8XiL8Dx4Y6rQVwFH-43953" value="R, W: 107, H: 89, ORDER: 23, GC: {39, 22, 20, 26, 14, 6, 10, 12, 7, 3, 15, 17, 1, 25, 4, 13, 2, 19, 5, 8, 50, 30, 27} " style="text;html=1;strokeColor=none;fillColor=none;align=center;verticalAlign=middle;whiteSpace=wrap;rounded=0;flipV=1;" parent="1" vertex="1">
          <mxGeometry x="1170" y="1170" width="1070" height="30" as="geometry" />
        </mxCell>
        <mxCell id="AFSaRgD4OhnezrTB77er-1" value="" style="group;flipV=1;" vertex="1" connectable="0" parent="1">
          <mxGeometry x="1170" y="50" width="1070" height="1010" as="geometry" />
        </mxCell>
        <mxCell id="761dnnyQ54j-Cl0NHfQN-10170" value="43" style="rounded=0;whiteSpace=wrap;html=1;" parent="AFSaRgD4OhnezrTB77er-1" vertex="1">
          <mxGeometry y="580" width="430" height="430" as="geometry" />
        </mxCell>
        <mxCell id="761dnnyQ54j-Cl0NHfQN-10171" value="22" style="rounded=0;whiteSpace=wrap;html=1;" parent="AFSaRgD4OhnezrTB77er-1" vertex="1">
          <mxGeometry x="430" y="790" width="220" height="220" as="geometry" />
        </mxCell>
        <mxCell id="761dnnyQ54j-Cl0NHfQN-10172" value="23" style="rounded=0;whiteSpace=wrap;html=1;" parent="AFSaRgD4OhnezrTB77er-1" vertex="1">
          <mxGeometry x="650" y="780" width="230" height="230" as="geometry" />
        </mxCell>
        <mxCell id="761dnnyQ54j-Cl0NHfQN-10173" value="19" style="rounded=0;whiteSpace=wrap;html=1;" parent="AFSaRgD4OhnezrTB77er-1" vertex="1">
          <mxGeometry x="880" y="820" width="190" height="190" as="geometry" />
        </mxCell>
        <mxCell id="761dnnyQ54j-Cl0NHfQN-10174" value="4" style="rounded=0;whiteSpace=wrap;html=1;" parent="AFSaRgD4OhnezrTB77er-1" vertex="1">
          <mxGeometry x="880" y="780" width="40" height="40" as="geometry" />
        </mxCell>
        <mxCell id="761dnnyQ54j-Cl0NHfQN-10175" value="15" style="rounded=0;whiteSpace=wrap;html=1;" parent="AFSaRgD4OhnezrTB77er-1" vertex="1">
          <mxGeometry x="920" y="670" width="150" height="150" as="geometry" />
        </mxCell>
        <mxCell id="761dnnyQ54j-Cl0NHfQN-10176" value="21" style="rounded=0;whiteSpace=wrap;html=1;" parent="AFSaRgD4OhnezrTB77er-1" vertex="1">
          <mxGeometry x="430" y="580" width="210" height="210" as="geometry" />
        </mxCell>
        <mxCell id="761dnnyQ54j-Cl0NHfQN-10177" value="1" style="rounded=0;whiteSpace=wrap;html=1;" parent="AFSaRgD4OhnezrTB77er-1" vertex="1">
          <mxGeometry x="640" y="780" width="10" height="10" as="geometry" />
        </mxCell>
        <mxCell id="761dnnyQ54j-Cl0NHfQN-10178" value="17" style="rounded=0;whiteSpace=wrap;html=1;" parent="AFSaRgD4OhnezrTB77er-1" vertex="1">
          <mxGeometry x="640" y="610" width="170" height="170" as="geometry" />
        </mxCell>
        <mxCell id="761dnnyQ54j-Cl0NHfQN-10179" value="11" style="rounded=0;whiteSpace=wrap;html=1;" parent="AFSaRgD4OhnezrTB77er-1" vertex="1">
          <mxGeometry x="810" y="670" width="110" height="110" as="geometry" />
        </mxCell>
        <mxCell id="761dnnyQ54j-Cl0NHfQN-10180" value="8" style="rounded=0;whiteSpace=wrap;html=1;" parent="AFSaRgD4OhnezrTB77er-1" vertex="1">
          <mxGeometry x="810" y="590" width="80" height="80" as="geometry" />
        </mxCell>
        <mxCell id="761dnnyQ54j-Cl0NHfQN-10181" value="3" style="rounded=0;whiteSpace=wrap;html=1;" parent="AFSaRgD4OhnezrTB77er-1" vertex="1">
          <mxGeometry x="640" y="580" width="30" height="30" as="geometry" />
        </mxCell>
        <mxCell id="761dnnyQ54j-Cl0NHfQN-10182" value="12" style="rounded=0;whiteSpace=wrap;html=1;" parent="AFSaRgD4OhnezrTB77er-1" vertex="1">
          <mxGeometry x="670" y="490" width="120" height="120" as="geometry" />
        </mxCell>
        <mxCell id="761dnnyQ54j-Cl0NHfQN-10183" value="2" style="rounded=0;whiteSpace=wrap;html=1;" parent="AFSaRgD4OhnezrTB77er-1" vertex="1">
          <mxGeometry x="790" y="590" width="20" height="20" as="geometry" />
        </mxCell>
        <mxCell id="761dnnyQ54j-Cl0NHfQN-10184" value="18" style="rounded=0;whiteSpace=wrap;html=1;" parent="AFSaRgD4OhnezrTB77er-1" vertex="1">
          <mxGeometry x="890" y="490" width="180" height="180" as="geometry" />
        </mxCell>
        <mxCell id="761dnnyQ54j-Cl0NHfQN-10185" value="10" style="rounded=0;whiteSpace=wrap;html=1;" parent="AFSaRgD4OhnezrTB77er-1" vertex="1">
          <mxGeometry x="790" y="490" width="100" height="100" as="geometry" />
        </mxCell>
        <mxCell id="761dnnyQ54j-Cl0NHfQN-10186" value="58" style="rounded=0;whiteSpace=wrap;html=1;" parent="AFSaRgD4OhnezrTB77er-1" vertex="1">
          <mxGeometry width="580" height="580" as="geometry" />
        </mxCell>
        <mxCell id="761dnnyQ54j-Cl0NHfQN-10187" value="9" style="rounded=0;whiteSpace=wrap;html=1;" parent="AFSaRgD4OhnezrTB77er-1" vertex="1">
          <mxGeometry x="580" y="490" width="90" height="90" as="geometry" />
        </mxCell>
        <mxCell id="761dnnyQ54j-Cl0NHfQN-10188" value="49" style="rounded=0;whiteSpace=wrap;html=1;" parent="AFSaRgD4OhnezrTB77er-1" vertex="1">
          <mxGeometry x="580" width="490" height="490" as="geometry" />
        </mxCell>
        <mxCell id="AFSaRgD4OhnezrTB77er-2" value="" style="group;flipV=1;" vertex="1" connectable="0" parent="1">
          <mxGeometry x="1170" y="1220" width="1070" height="890" as="geometry" />
        </mxCell>
        <mxCell id="761dnnyQ54j-Cl0NHfQN-43954" value="39" style="rounded=0;whiteSpace=wrap;html=1;" parent="AFSaRgD4OhnezrTB77er-2" vertex="1">
          <mxGeometry y="500" width="390" height="390" as="geometry" />
        </mxCell>
        <mxCell id="761dnnyQ54j-Cl0NHfQN-43955" value="22" style="rounded=0;whiteSpace=wrap;html=1;" parent="AFSaRgD4OhnezrTB77er-2" vertex="1">
          <mxGeometry x="390" y="670" width="220" height="220" as="geometry" />
        </mxCell>
        <mxCell id="761dnnyQ54j-Cl0NHfQN-43956" value="20" style="rounded=0;whiteSpace=wrap;html=1;" parent="AFSaRgD4OhnezrTB77er-2" vertex="1">
          <mxGeometry x="610" y="690" width="200" height="200" as="geometry" />
        </mxCell>
        <mxCell id="761dnnyQ54j-Cl0NHfQN-43957" value="26" style="rounded=0;whiteSpace=wrap;html=1;" parent="AFSaRgD4OhnezrTB77er-2" vertex="1">
          <mxGeometry x="810" y="630" width="260" height="260" as="geometry" />
        </mxCell>
        <mxCell id="761dnnyQ54j-Cl0NHfQN-43958" value="14" style="rounded=0;whiteSpace=wrap;html=1;" parent="AFSaRgD4OhnezrTB77er-2" vertex="1">
          <mxGeometry x="610" y="550" width="140" height="140" as="geometry" />
        </mxCell>
        <mxCell id="761dnnyQ54j-Cl0NHfQN-43959" value="6" style="rounded=0;whiteSpace=wrap;html=1;" parent="AFSaRgD4OhnezrTB77er-2" vertex="1">
          <mxGeometry x="750" y="630" width="60" height="60" as="geometry" />
        </mxCell>
        <mxCell id="761dnnyQ54j-Cl0NHfQN-43960" value="10" style="rounded=0;whiteSpace=wrap;html=1;" parent="AFSaRgD4OhnezrTB77er-2" vertex="1">
          <mxGeometry x="390" y="570" width="100" height="100" as="geometry" />
        </mxCell>
        <mxCell id="761dnnyQ54j-Cl0NHfQN-43961" value="12" style="rounded=0;whiteSpace=wrap;html=1;" parent="AFSaRgD4OhnezrTB77er-2" vertex="1">
          <mxGeometry x="490" y="550" width="120" height="120" as="geometry" />
        </mxCell>
        <mxCell id="761dnnyQ54j-Cl0NHfQN-43962" value="7" style="rounded=0;whiteSpace=wrap;html=1;" parent="AFSaRgD4OhnezrTB77er-2" vertex="1">
          <mxGeometry x="390" y="500" width="70" height="70" as="geometry" />
        </mxCell>
        <mxCell id="761dnnyQ54j-Cl0NHfQN-43963" value="3" style="rounded=0;whiteSpace=wrap;html=1;" parent="AFSaRgD4OhnezrTB77er-2" vertex="1">
          <mxGeometry x="460" y="540" width="30" height="30" as="geometry" />
        </mxCell>
        <mxCell id="761dnnyQ54j-Cl0NHfQN-43964" value="15" style="rounded=0;whiteSpace=wrap;html=1;" parent="AFSaRgD4OhnezrTB77er-2" vertex="1">
          <mxGeometry x="750" y="480" width="150" height="150" as="geometry" />
        </mxCell>
        <mxCell id="761dnnyQ54j-Cl0NHfQN-43965" value="17" style="rounded=0;whiteSpace=wrap;html=1;" parent="AFSaRgD4OhnezrTB77er-2" vertex="1">
          <mxGeometry x="900" y="460" width="170" height="170" as="geometry" />
        </mxCell>
        <mxCell id="761dnnyQ54j-Cl0NHfQN-43966" value="1" style="rounded=0;whiteSpace=wrap;html=1;" parent="AFSaRgD4OhnezrTB77er-2" vertex="1">
          <mxGeometry x="490" y="540" width="10" height="10" as="geometry" />
        </mxCell>
        <mxCell id="761dnnyQ54j-Cl0NHfQN-43967" value="25" style="rounded=0;whiteSpace=wrap;html=1;" parent="AFSaRgD4OhnezrTB77er-2" vertex="1">
          <mxGeometry x="500" y="300" width="250" height="250" as="geometry" />
        </mxCell>
        <mxCell id="761dnnyQ54j-Cl0NHfQN-43968" value="4" style="rounded=0;whiteSpace=wrap;html=1;" parent="AFSaRgD4OhnezrTB77er-2" vertex="1">
          <mxGeometry x="460" y="500" width="40" height="40" as="geometry" />
        </mxCell>
        <mxCell id="761dnnyQ54j-Cl0NHfQN-43969" value="13" style="rounded=0;whiteSpace=wrap;html=1;" parent="AFSaRgD4OhnezrTB77er-2" vertex="1">
          <mxGeometry x="750" y="350" width="130" height="130" as="geometry" />
        </mxCell>
        <mxCell id="761dnnyQ54j-Cl0NHfQN-43970" value="2" style="rounded=0;whiteSpace=wrap;html=1;" parent="AFSaRgD4OhnezrTB77er-2" vertex="1">
          <mxGeometry x="880" y="460" width="20" height="20" as="geometry" />
        </mxCell>
        <mxCell id="761dnnyQ54j-Cl0NHfQN-43971" value="19" style="rounded=0;whiteSpace=wrap;html=1;" parent="AFSaRgD4OhnezrTB77er-2" vertex="1">
          <mxGeometry x="880" y="270" width="190" height="190" as="geometry" />
        </mxCell>
        <mxCell id="761dnnyQ54j-Cl0NHfQN-43972" value="5" style="rounded=0;whiteSpace=wrap;html=1;" parent="AFSaRgD4OhnezrTB77er-2" vertex="1">
          <mxGeometry x="750" y="300" width="50" height="50" as="geometry" />
        </mxCell>
        <mxCell id="761dnnyQ54j-Cl0NHfQN-43973" value="8" style="rounded=0;whiteSpace=wrap;html=1;" parent="AFSaRgD4OhnezrTB77er-2" vertex="1">
          <mxGeometry x="800" y="270" width="80" height="80" as="geometry" />
        </mxCell>
        <mxCell id="761dnnyQ54j-Cl0NHfQN-43974" value="50" style="rounded=0;whiteSpace=wrap;html=1;" parent="AFSaRgD4OhnezrTB77er-2" vertex="1">
          <mxGeometry width="500" height="500" as="geometry" />
        </mxCell>
        <mxCell id="761dnnyQ54j-Cl0NHfQN-43975" value="30" style="rounded=0;whiteSpace=wrap;html=1;" parent="AFSaRgD4OhnezrTB77er-2" vertex="1">
          <mxGeometry x="500" width="300" height="300" as="geometry" />
        </mxCell>
        <mxCell id="761dnnyQ54j-Cl0NHfQN-43976" value="27" style="rounded=0;whiteSpace=wrap;html=1;" parent="AFSaRgD4OhnezrTB77er-2" vertex="1">
          <mxGeometry x="800" width="270" height="270" as="geometry" />
        </mxCell>
      </root>
    </mxGraphModel>
  </diagram>
</mxfile>
